<svg xmlns="http://www.w3.org/2000/svg" width="88" height="86"><path d="M54 10.018c0 5.532-4.477 10.017-10 10.017S34 15.55 34 10.018C34 4.485 38.477 0 44 0s10 4.485 10 10.018zm-36 34.06c0 4.98-4.03 9.016-9 9.016s-9-4.037-9-9.016c0-4.98 4.03-9.016 9-9.016s9 4.036 9 9.016zm7 21.037c0 4.98-4.03 9.016-9 9.016s-9-4.037-9-9.016c0-4.98 4.03-9.016 9-9.016s9 4.037 9 9.016zm14.536 12.871c0 4.426-3.582 8.014-8 8.014-4.419 0-8-3.588-8-8.014 0-4.426 3.581-8.014 8-8.014 4.418 0 8 3.588 8 8.014zm24.454-.046c0 4.426-3.582 8.014-8 8.014s-8-3.588-8-8.014c0-4.426 3.582-8.014 8-8.014s8 3.588 8 8.014zM82 64.113c0 3.873-3.134 7.013-7 7.013s-7-3.14-7-7.013c0-3.873 3.134-7.012 7-7.012s7 3.14 7 7.012zm6-19.033c0 3.872-3.134 7.012-7 7.012s-7-3.14-7-7.012c0-3.873 3.134-7.013 7-7.013s7 3.14 7 7.013zM73 13.023a5.004 5.004 0 0 1-5 5.009c-2.761 0-5-2.243-5-5.009a5.004 5.004 0 0 1 5-5.009c2.761 0 5 2.243 5 5.009zm-44 8.014c0 5.533-4.477 10.018-10 10.018S9 26.57 9 21.037c0-5.532 4.477-10.018 10-10.018s10 4.486 10 10.018zm55 6.011c0 3.32-2.686 6.01-6 6.01s-6-2.69-6-6.01 2.686-6.01 6-6.01 6 2.69 6 6.01z" fill="#41414f" fill-opacity=".941"/></svg>